<?xml version="1.0" encoding="iso-8859-1"?>
<!-- Generator: Adobe Illustrator 19.0.0, SVG Export Plug-In . SVG Version: 6.00 Build 0)  -->
<svg version="1.1" id="Layer_1" xmlns="http://www.w3.org/2000/svg" xmlns:xlink="http://www.w3.org/1999/xlink" x="0px" y="0px"
	 viewBox="0 0 512 512" style="enable-background:new 0 0 512 512;" xml:space="preserve">
<polygon style="fill:#9AD7FF;" points="117.912,0 0.078,131.971 173.516,180.502 346.954,131.971 464.788,0 "/>
<polygon style="fill:#174461;" points="165.046,427.163 0.078,512 346.954,512 511.922,427.163 "/>
<polygon style="fill:#4EB9FF;" points="165.046,384.535 0.078,469.373 346.954,469.373 511.922,384.535 "/>
<polygon style="fill:#174461;" points="165.046,341.908 0.078,426.745 346.954,426.745 511.922,341.908 "/>
<polygon style="fill:#4EB9FF;" points="346.954,299.28 346.954,384.118 511.922,299.28 "/>
<polygon style="fill:#9AD7FF;" points="117.912,252.147 0.078,384.118 346.954,384.118 464.788,252.147 291.35,203.616 "/>
<polygon style="fill:#4EB9FF;" points="346.954,131.971 0.078,131.971 117.912,252.158 464.788,252.158 "/>
<g>
</g>
<g>
</g>
<g>
</g>
<g>
</g>
<g>
</g>
<g>
</g>
<g>
</g>
<g>
</g>
<g>
</g>
<g>
</g>
<g>
</g>
<g>
</g>
<g>
</g>
<g>
</g>
<g>
</g>
</svg>
